<svg width="57" height="58" viewBox="0 0 57 58" fill="none" xmlns="http://www.w3.org/2000/svg">
<g id="Logo">
<path d="M27.9632 0.361205C27.9632 0.0827122 27.6594 -0.0907008 27.4177 0.0498299L12.6351 8.64478C12.5238 8.70945 12.4555 8.82799 12.4555 8.95615V22.1861C12.4555 22.4646 12.7594 22.638 13.0011 22.4973L27.7838 13.8912C27.8949 13.8265 27.9632 13.708 27.9632 13.5799V0.361205Z" fill="#3263BF"/>
<path d="M28.685 0.361205C28.685 0.0827122 28.9889 -0.0907008 29.2306 0.0498299L44.0132 8.64478C44.1244 8.70945 44.1928 8.82799 44.1928 8.95615V22.1861C44.1928 22.4646 43.8888 22.638 43.6471 22.4973L28.8645 13.8912C28.7533 13.8265 28.685 13.708 28.685 13.5799V0.361205Z" fill="#6A3BB7"/>
<path d="M0.728931 48.4684C0.487168 48.6079 0.487241 48.9562 0.72906 49.0946L15.5716 57.5915C15.6834 57.6556 15.821 57.6553 15.9328 57.5908L27.3972 50.9765C27.639 50.837 27.6389 50.4886 27.3969 50.3502L12.5446 41.8589C12.4328 41.795 12.2953 41.7953 12.1836 41.8598L0.728931 48.4684Z" fill="#3263BF"/>
<path d="M0.542605 47.8231C0.300843 47.9626 -0.000933772 47.7884 2.17169e-06 47.5099L0.057449 30.4166C0.0578817 30.2878 0.126943 30.1689 0.238726 30.1044L11.7031 23.4901C11.945 23.3506 12.2468 23.525 12.2457 23.8036L12.1785 40.9025C12.178 41.0312 12.109 41.15 11.9973 41.2145L0.542605 47.8231Z" fill="#6A3BB7"/>
<path d="M55.9102 48.8291C56.1519 48.9686 56.1518 49.3168 55.91 49.4553L41.0675 57.9522C40.9557 58.0162 40.8181 58.0159 40.7063 57.9514L29.2419 51.3372C29.0001 51.1976 29.0002 50.8492 29.2422 50.7109L44.0945 42.2196C44.2062 42.1556 44.3438 42.156 44.4555 42.2204L55.9102 48.8291Z" fill="#6A3BB7"/>
<path d="M56.4574 47.8231C56.6992 47.9626 57.0009 47.7884 57 47.5099L56.9426 30.4166C56.9421 30.2878 56.8731 30.1689 56.7613 30.1044L45.2969 23.4901C45.055 23.3506 44.7532 23.525 44.7543 23.8036L44.8215 40.9025C44.822 41.0312 44.891 41.15 45.0027 41.2145L56.4574 47.8231Z" fill="#3263BF"/>
</g>
</svg>
